<?xml version="1.0" encoding="utf-8"?>
<!-- Generator: Adobe Illustrator 28.3.0, SVG Export Plug-In . SVG Version: 6.00 Build 0)  -->
<svg version="1.1" id="Capa_1" xmlns="http://www.w3.org/2000/svg" xmlns:xlink="http://www.w3.org/1999/xlink" x="0px" y="0px"
	 viewBox="0 0 512 512" style="enable-background:new 0 0 512 512;" xml:space="preserve">
<style type="text/css">
	.st0{fill:#472503;}
	.st1{fill:#131236;}
	.st2{fill:#0C0C21;}
	.st3{fill:#351B03;}
	.st4{fill:#F85E23;}
	.st5{fill:#E25124;}
	.st6{fill:#1D1D56;}
	.st7{fill:#FA9E3E;}
	.st8{fill:#FFB56B;}
	.st9{fill:#EF9245;}
	.st10{fill:#19303F;}
	.st11{fill:#F0EEEE;}
	.st12{fill:url(#SVGID_1_);}
	.st13{fill:#FFFFFF;}
</style>
<path class="st0" d="M402.3,370.4c1.4,6.2,2.1,12.5,2.1,19c0,62.8-66.4,81.6-148.4,81.6s-148.4-18.8-148.4-81.6
	c0-6.5,0.7-12.8,2.1-19c19-93,19-96.3,0-189.3c-1.4-6.2-2.1-12.5-2.1-19c0-10,1.7-19.8,4.9-29h287.1c3.2,9.3,4.9,19,4.9,29
	c0,6.5-0.7,12.8-2.1,19C383.3,274.1,383.3,277.3,402.3,370.4z"/>
<path class="st1" d="M308.9,355.9H203.1c-45.7,0-82.9,37.2-82.9,82.9v65.7c0,4.1,3.4,7.5,7.5,7.5h256.6c4.1,0,7.5-3.4,7.5-7.5v-65.7
	C391.8,393.1,354.6,355.9,308.9,355.9z"/>
<path class="st2" d="M308.9,355.9h-26.2c45.7,0,82.9,37.2,82.9,82.9v65.7c0,4.1-3.4,7.5-7.5,7.5h26.2c4.1,0,7.5-3.4,7.5-7.5v-65.7
	C391.8,393.1,354.6,355.9,308.9,355.9z"/>
<path class="st3" d="M394,181c1.3-6.2,2-12.5,2-19c0-10-1.6-19.8-4.6-29h-23c3,9.3,4.6,19,4.6,29c0,6.5-0.7,12.8-2,19
	c-17.9,93-17.9,96.3,0,189.3c1.3,6.2,2,12.5,2,19c0,59.6-56.6,79.6-128.5,81.5c3.8,0.1,7.6,0.1,11.5,0.1c77.3,0,140-18.8,140-81.6
	c0-6.5-0.7-12.8-2-19C376.1,277.3,376.1,274.1,394,181z"/>
<path class="st4" d="M308.9,355.9H203.1c-45.7,0-82.9,37.2-82.9,82.9v24.6h271.6v-24.6C391.8,393.1,354.6,355.9,308.9,355.9z"/>
<path class="st5" d="M308.9,355.9h-26.2c45.7,0,82.9,37.2,82.9,82.9v24.6h26.2v-24.6C391.8,393.1,354.6,355.9,308.9,355.9z"/>
<g>
	<path class="st6" d="M237.2,512v-74.1l35.6-39.2c2.8-3.1,2.6-7.8-0.5-10.6s-7.8-2.6-10.6,0.5L224.2,430c-1.3,1.4-2,3.2-2,5v77
		L237.2,512L237.2,512z"/>
	<path class="st6" d="M319.7,354.3l-23.3-17.5c-1.8-1.4-4.1-1.8-6.3-1.3c-2.2,0.6-4,2.1-5,4.1l-28,60.7c-0.9,1.9-0.9,4.1-0.1,6
		s2.3,3.4,4.3,4.2l45.6,17.2c1.5,0.6,3.1,0.9,4.7,0.9c2.6,0,5.1-0.7,7.3-2.2c3.5-2.3,5.8-6.2,6-10.4l2.4-45.8
		C327.5,364,324.7,358.1,319.7,354.3z"/>
	<path class="st6" d="M226.9,339.6c-0.9-2.1-2.8-3.6-5-4.1c-2.2-0.6-4.5-0.1-6.3,1.3l-23.3,17.5c-5,3.7-7.7,9.7-7.4,15.9l2.4,45.8
		c0.2,4.2,2.5,8.1,6,10.4c2.2,1.4,4.7,2.2,7.3,2.2c1.6,0,3.2-0.3,4.7-0.9l45.6-17.2c1.9-0.7,3.5-2.2,4.3-4.2s0.7-4.1-0.1-6
		L226.9,339.6z"/>
</g>
<path class="st7" d="M298.1,267.7v95.4l-21.3,35.6c-4.4,7.3-12.3,11.8-20.8,11.8l0,0c-8.5,0-16.4-4.5-20.8-11.8l-21.3-35.6v-95.4
	H298.1L298.1,267.7z"/>
<g>
	<path class="st7" d="M125.8,224.7l49.4-0.1l0.1,56.6l-49.4,0.1c-15.6,0-28.3-12.6-28.4-28.3C97.5,237.4,110.2,224.7,125.8,224.7z"
		/>
	<path class="st7" d="M386.1,224.3l-49.4,0.1l0.1,56.6l49.4-0.1c15.6,0,28.3-12.7,28.3-28.4C414.4,236.9,401.7,224.2,386.1,224.3z"
		/>
</g>
<path class="st8" d="M289.5,151.3c-33.2-10.4-61.7-25.7-80.7-41.9h-23.2c0.1,1.4,0.1,2.8,0.1,4.2c0,32-23.3,58-51.9,58
	c-0.3,0-0.7,0-1,0v33.7c0,76,55.2,137.5,123.2,137.5s123.2-61.6,123.2-137.5v-43.1C355.3,165.2,323.3,161.9,289.5,151.3z"/>
<path class="st9" d="M353.6,163.1v56.5c0,65.7-46.1,119.4-104.2,123c1.1,0.1,2.2,0.1,3.3,0.1c0,0,0,0,0,0c1.1,0,2.2,0.1,3.3,0.1l0,0
	l0,0c68,0,123.2-61.6,123.2-137.5v-43.1C371.4,163.1,362.8,163.5,353.6,163.1z"/>
<g>
	<path class="st10" d="M310.3,233c-4.1,0-7.5-3.4-7.5-7.5v-2c0-4.1,3.4-7.5,7.5-7.5s7.5,3.4,7.5,7.5v2
		C317.8,229.6,314.5,233,310.3,233z"/>
	<path class="st10" d="M201.7,233c-4.1,0-7.5-3.4-7.5-7.5v-2c0-4.1,3.4-7.5,7.5-7.5s7.5,3.4,7.5,7.5v2
		C209.2,229.6,205.8,233,201.7,233z"/>
	<path class="st10" d="M256,288.5c-13.5,0-26.1-6.6-33.8-17.7c-2.4-3.4-1.5-8.1,1.9-10.4c3.4-2.4,8.1-1.5,10.4,1.9
		c4.9,7.1,12.9,11.3,21.5,11.3c8.6,0,16.6-4.2,21.5-11.3c2.4-3.4,7-4.3,10.4-1.9c3.4,2.4,4.3,7,1.9,10.4
		C282.1,281.9,269.5,288.5,256,288.5z"/>
</g>
<path class="st1" d="M383.3,148.6c-0.9-2.4-2.9-4.2-5.4-4.7c-80.9-18.1-162.9-18.1-243.7,0c-2.5,0.6-4.5,2.3-5.4,4.7
	c-0.9,2.4-0.5,5.1,1,7.1l32.4,43.4c2.3,3,6.5,3.9,9.8,2c21.2-12.3,51.9-19.3,84.1-19.3s62.9,7,84.1,19.3c1.2,0.7,2.5,1,3.8,1
	c2.3,0,4.6-1.1,6-3l32.4-43.4C383.8,153.6,384.1,150.9,383.3,148.6z"/>
<path class="st6" d="M413.8,97.4l-45-81.5c-1.1-2-3.1-3.4-5.5-3.8l-79.9-12C283.1,0,282.7,0,282.3,0h-52.7c-0.4,0-0.7,0-1.1,0.1
	l-79.9,12c-2.3,0.3-4.3,1.7-5.5,3.8l-45,81.5c-0.6,1.1-0.9,2.4-0.9,3.6v58c0,2.3,1.1,4.6,3,6c1.9,1.4,4.3,1.9,6.6,1.2
	c49.5-14,99.7-21.1,149.2-21.1s99.7,7.1,149.2,21.1c0.7,0.2,1.4,0.3,2,0.3c1.6,0,3.2-0.5,4.5-1.5c1.9-1.4,3-3.6,3-6v-58
	C414.7,99.7,414.4,98.5,413.8,97.4z"/>
<path class="st1" d="M413.8,97.4l-45-81.5c-1.1-2-3.1-3.4-5.5-3.8l-25.2-3.8c0.5,0.5,0.9,1,1.2,1.6l46.8,84.7c0.6,1.2,1,2.5,1,3.8
	v60.3c0,0.9-0.2,1.8-0.5,2.6c6.2,1.5,12.4,3.2,18.6,4.9c0.7,0.2,1.4,0.3,2,0.3c1.6,0,3.2-0.5,4.5-1.5c1.9-1.4,3-3.6,3-6v-58
	C414.7,99.7,414.4,98.5,413.8,97.4z"/>
<g>
	<path class="st11" d="M256,452.5c-0.5,0-1,0-1.5-0.1c-0.5-0.1-0.9-0.2-1.4-0.4c-0.4-0.2-0.9-0.4-1.3-0.7c-0.4-0.3-0.8-0.6-1.1-0.9
		c-1.4-1.4-2.2-3.3-2.2-5.3c0-0.5,0.1-1,0.1-1.5c0.1-0.5,0.2-1,0.4-1.4c0.2-0.5,0.4-0.9,0.7-1.3c0.3-0.4,0.6-0.8,0.9-1.1
		c0.3-0.4,0.7-0.7,1.1-0.9c0.4-0.3,0.8-0.5,1.3-0.7c0.4-0.2,0.9-0.3,1.4-0.4c2.4-0.5,5,0.3,6.8,2c0.4,0.3,0.7,0.7,0.9,1.1
		c0.3,0.4,0.5,0.8,0.7,1.3c0.2,0.5,0.3,0.9,0.4,1.4c0.1,0.5,0.1,1,0.1,1.5c0,2-0.8,3.9-2.2,5.3C259.9,451.7,258,452.5,256,452.5z"/>
	<path class="st11" d="M256,490.5c-0.5,0-1,0-1.5-0.1c-0.5-0.1-0.9-0.2-1.4-0.4c-0.4-0.2-0.9-0.4-1.3-0.7c-0.4-0.3-0.8-0.6-1.1-0.9
		c-0.4-0.3-0.7-0.7-0.9-1.1c-0.3-0.4-0.5-0.8-0.7-1.3c-0.2-0.5-0.3-0.9-0.4-1.4c-0.1-0.5-0.1-1-0.1-1.5s0.1-1,0.1-1.5
		c0.1-0.5,0.2-1,0.4-1.4c0.2-0.5,0.4-0.9,0.7-1.3c0.3-0.4,0.6-0.8,0.9-1.1c0.3-0.4,0.7-0.7,1.1-0.9c0.4-0.3,0.8-0.5,1.3-0.7
		c0.4-0.2,0.9-0.3,1.4-0.4c2.4-0.5,5,0.3,6.8,2c0.4,0.3,0.7,0.7,0.9,1.1c0.3,0.4,0.5,0.8,0.7,1.3c0.2,0.5,0.3,0.9,0.4,1.4
		c0.1,0.5,0.1,1,0.1,1.5c0,2-0.8,3.9-2.2,5.3C259.9,489.7,258,490.5,256,490.5z"/>
	<path class="st11" d="M344.5,449.5h-30.8c-4.1,0-7.5-3.4-7.5-7.5s3.4-7.5,7.5-7.5h30.8c4.1,0,7.5,3.4,7.5,7.5
		S348.6,449.5,344.5,449.5z"/>
</g>
<g>
	
		<linearGradient id="SVGID_1_" gradientUnits="userSpaceOnUse" x1="-695.7501" y1="787.7809" x2="-695.4169" y2="787.6934" gradientTransform="matrix(83.4753 0 0 -32.509 58408.668 25707.8633)">
		<stop  offset="0" style="stop-color:#FEBE2D"/>
		<stop  offset="1" style="stop-color:#F85E23"/>
	</linearGradient>
	<path class="st12" d="M317,105c-1.2,0.1-2.1,1.1-2.2,2.2c-0.2,1.3,0.5,2.2,1.7,2.2c1.2-0.1,2.1-1.1,2.2-2.2
		c0.3-0.9-0.3-1.9-1.2-2.2C317.3,105,317.1,105,317,105L317,105z M333.5,92.2c-2.5-0.1-4.8,1.2-6.1,3.3l0.4-3.1H324l-2.5,16.9h3.8
		l1.2-8.3c0.1-2.6,2.2-4.7,4.8-4.9c2.2,0,3.3,1.5,3,3.8l-1.3,9.4h3.9l1.5-10.6C339,94.7,337.2,92.2,333.5,92.2 M349.7,92.2
		c-4.9,0.1-8.9,3.8-9.3,8.7c-0.7,5.1,2,8.6,6.9,8.6c2.6,0,5.2-1,7.1-2.9l-1.7-2.2c-1.2,1.2-2.8,1.9-4.5,1.9c-2.1,0.1-3.8-1.5-4-3.5
		c0-0.1,0-0.2,0-0.3h11.7C357.2,96.1,355.3,92.2,349.7,92.2L349.7,92.2z M344.5,99.4c0.5-2.3,2.5-4,4.8-4.1c1.8-0.2,3.4,1.1,3.6,3
		c0,0.4,0,0.8-0.1,1.2L344.5,99.4z M366.6,105.2c-0.7,0.4-1.5,0.6-2.2,0.7c-1,0-1.6-0.5-1.3-2.2l1.1-7.6h4.5l0.4-3h-4.5l0.7-4.7
		h-3.8l-0.7,4.7h-2.2l-0.4,3h2.2l-1.2,8.4c-0.5,3.5,1.3,5.1,3.9,5.1c1.5,0,2.9-0.5,4.1-1.2L366.6,105.2z"/>
	<path class="st13" d="M136.1,86.8c1.7,0,3,1.3,3,3c0,1.7-1.3,3-3,3c-1.7,0-3-1.3-3-3C133.1,88.2,134.5,86.8,136.1,86.8 M165.8,78.5
		c2.5-1.9,5.6-3,8.8-3.1c3.8-0.1,7.4,1.5,9.9,4.4c2.9,3.7,4,8.5,3.1,13c-0.8,7.8-6,14.5-13.5,17c-1.5,0.4-3.1,0.6-4.7,0.7
		c-3.5,0.2-6.8-1.5-8.8-4.3l-0.4,2.9c-0.1,0.3-0.3,0.5-0.6,0.5h-6.9c-0.1,0-0.3,0-0.4-0.2c-0.1-0.1-0.1-0.3,0-0.4l2.4-16.6h-9
		c-1.4,0-2.5-1.1-2.5-2.5c0-1.4,1-2.5,2.4-2.6h19.4c-1.3,1.7-2.2,3.6-2.5,5.8c-0.7,4.8,1.7,9.4,6.9,9.4c5.2-0.2,9.5-4.3,10-9.4
		c0.7-4.7-2-9.2-7.1-9.2h-22.1c-1.4,0-2.5-1.2-2.5-2.6c0-1.4,1.1-2.5,2.5-2.5h6.4l1.8-12.7c0.1-0.3,0.3-0.5,0.6-0.5h7.2
		c0.1,0,0.3,0.1,0.4,0.2c0.1,0.1,0.1,0.3,0,0.4l-1.8,12.6L165.8,78.5z M209.8,106.6c-2.4,2.6-5.8,4.1-9.3,3.9
		c-8.9,0-11.2-6.5-10.1-14.2l2.8-19.4c0.1-0.3,0.3-0.5,0.6-0.5h7.1c0.1,0,0.3,0.1,0.4,0.2c0.1,0.1,0.1,0.3,0,0.4l-2.5,17.4
		c-0.6,4.1,0,7.9,4.8,7.8c4.8,0,6.7-3.3,7.5-7.7l2.5-17.7c0.1-0.3,0.3-0.5,0.6-0.5h7.1c0.1,0,0.3,0.1,0.4,0.2c0.1,0.1,0.1,0.3,0,0.4
		l-4.5,32c-0.1,0.3-0.3,0.5-0.6,0.5h-6.7c-0.1,0-0.3,0-0.4-0.2c-0.1-0.1-0.1-0.3-0.1-0.4l0.3-2.4L209.8,106.6z M234.2,79.4
		c2.4-2.6,5.8-4,9.3-3.9c8.8,0,11.2,6.5,10.1,14.3l-2.8,19.3c0,0.3-0.3,0.5-0.5,0.5h-7.1c-0.1,0-0.3,0-0.4-0.2
		c-0.1-0.1-0.1-0.3-0.1-0.4l2.5-17.2c0.6-4.1,0.2-7.9-4.8-7.9c-4.9,0-6.7,3.4-7.4,7.7l-2.6,17.7c0,0.3-0.3,0.5-0.5,0.5h-7.1
		c-0.1,0-0.3-0.1-0.4-0.2c-0.1-0.1-0.1-0.3,0-0.4l4.5-32c0-0.3,0.3-0.5,0.6-0.5h6.7c0.1,0,0.3,0.1,0.4,0.2c0.1,0.1,0.1,0.2,0.1,0.4
		L234.2,79.4L234.2,79.4z M267.7,79.4c2.4-2.6,5.8-4,9.3-3.9c8.8,0,11.2,6.5,10.1,14.3l-2.8,19.3c0,0.3-0.3,0.5-0.5,0.5h-7.1
		c-0.1,0-0.3,0-0.4-0.2c-0.1-0.1-0.1-0.3-0.1-0.4l2.5-17.2c0.6-4.1,0.2-7.9-4.8-7.9c-4.9,0-6.7,3.4-7.4,7.7l-2.5,17.7
		c0,0.3-0.3,0.5-0.5,0.5h-7.2c-0.1,0-0.3-0.1-0.4-0.2c-0.1-0.1-0.1-0.3,0-0.4l4.5-32c0-0.3,0.3-0.5,0.5-0.5h6.7
		c0.1,0,0.3,0.1,0.4,0.2c0.1,0.1,0.1,0.2,0.1,0.4L267.7,79.4L267.7,79.4z M295.6,107.7l-6.7-30.6c-0.1-0.1-0.1-0.3,0-0.4
		c0.1-0.1,0.3-0.2,0.4-0.2h7.6c0.2,0,0.4,0.2,0.5,0.4l3.9,19.8l9.6-19.9c0.1-0.2,0.3-0.3,0.5-0.3h7.8c0.2,0,0.3,0.1,0.4,0.2
		c0.1,0.2,0.1,0.3,0,0.5l-22,43.2c-0.1,0.2-0.3,0.3-0.5,0.3h-7.6c-0.2,0-0.3-0.1-0.4-0.2c-0.1-0.2-0.1-0.3,0-0.5L295.6,107.7z"/>
</g>
<path class="st0" d="M322.7,268.8c-2.2-0.9-5.2-0.9-7.5-0.2c-3.1,1-9.2,1.3-14.1,0.1c-3.3-0.8-5.3-2.1-6-3.9
	c-0.1-0.2-0.2-0.3-0.3-0.5c-3.2-6.1-13.4-10.4-24.9-10.4c-4.9,0-9.7,0.8-13.9,2.2c-4.1-1.4-8.9-2.2-13.9-2.2
	c-11.5,0-21.7,4.2-24.9,10.4c-0.1,0.2-0.2,0.3-0.3,0.5c-0.7,1.8-2.7,3.1-6,3.9c-4.9,1.2-11,0.9-14.1-0.1c-2.3-0.8-5.3-0.7-7.5,0.2
	c-2.2,0.9-3.3,2.4-2.9,3.8c1.7,5.3,9.2,11.9,22,14.6c9.7,2,25.7,2.5,47.5-6.7c14.3,6,26.1,7.9,35.3,7.9c4.8,0,8.9-0.5,12.3-1.2
	c12.8-2.7,20.3-9.3,22-14.6C326,271.2,324.9,269.7,322.7,268.8z"/>
</svg>
